<?xml version="1.0" encoding="UTF-8"?>
<svg width="300px" height="74px" viewBox="0 0 300 74" version="1.1" xmlns="http://www.w3.org/2000/svg" xmlns:xlink="http://www.w3.org/1999/xlink">
    <!-- Generator: Sketch 42 (36781) - http://www.bohemiancoding.com/sketch -->
    <title>EVERYDAY THINGS</title>
    <desc>Created with Sketch.</desc>
    <defs></defs>
    <g id="Page-1" stroke="none" stroke-width="1" fill="none" fill-rule="evenodd">
        <g id="1200" transform="translate(-34.000000, -19.000000)" fill="#FFFFFF">
            <g id="header">
                <path d="M52.2212581,25.607709 C51.1199678,25.607709 50.3857852,25.7078248 50.0186885,25.9080594 C49.518102,26.2084113 49.2678124,26.87585 49.2678124,27.9103955 L49.2678124,30.7136659 C49.2678124,31.2809973 49.3428993,31.7064895 49.4930753,31.9901552 C49.6432512,32.2738209 50.0353714,32.4156516 50.6694477,32.4156516 C52.1378348,32.4156516 52.8720174,31.8817007 52.8720174,30.8137827 L52.8720174,30.1630235 C52.8386449,29.9627889 52.821959,29.7124994 52.821959,29.4121475 C52.821959,28.0105053 53.6395713,27.3096946 55.2748206,27.3096946 C56.9768148,27.3096946 57.8277991,28.160679 57.8277991,29.8626731 C57.8277991,30.3298872 57.7944272,30.8471522 57.7276823,31.4144836 C57.5941926,32.5157739 57.5274487,33.5336179 57.5274487,34.4680461 C57.5274487,35.3357294 57.5941926,36.4370032 57.7276823,37.7719006 C57.861172,39.1067979 57.9279159,40.0412121 57.9279159,40.575171 C57.9279159,42.5441447 57.0435597,43.5286167 55.2748206,43.5286167 C53.6061989,43.5286167 52.7719006,42.6776324 52.7719006,40.9756382 L52.7719006,40.7253462 C52.7719006,40.5584841 52.8052725,40.1580209 52.8720174,39.5239446 C52.8720174,38.7230062 52.1545208,38.322543 50.7195061,38.322543 C49.7517055,38.322543 49.2678124,38.8564939 49.2678124,39.9244118 L49.2678124,43.6787919 C49.2678124,44.8468271 49.476387,45.6394106 49.8935425,46.056566 C50.3106979,46.4737214 51.0865954,46.682296 52.2212581,46.682296 L55.1246454,46.682296 C57.2604812,46.682296 58.7538753,46.4987504 59.6048724,46.1316536 C60.4558694,45.7645568 60.8813616,45.1138041 60.8813616,44.1793759 C60.8813616,43.7121619 60.8313037,43.153182 60.7311864,42.5024195 C60.6310691,41.851657 60.5810112,41.3093631 60.5810112,40.8755214 C60.5810112,39.6407414 60.9314165,38.6729553 61.6322376,37.9721342 C62.3330587,37.271313 63.2841589,36.9209077 64.4855665,36.9209077 C66.9217542,36.9209077 68.1398298,38.2557851 68.1398298,40.9255798 C68.1398298,41.7932631 68.0897719,42.7109913 67.9896546,43.6787919 C67.8227924,45.2806688 67.7393626,46.2818268 67.7393626,46.682296 C67.7393626,47.0493928 67.8227924,47.7668894 67.9896546,48.8348073 C68.0897719,49.4688835 68.1398298,50.1196362 68.1398298,50.7870849 C68.1398298,52.3555894 67.1553578,53.1398298 65.1863841,53.1398298 C64.5523079,53.1398298 63.5010919,53.0897719 62.0327048,52.9896546 C59.5965171,52.8227924 55.7086868,52.7059907 50.3690973,52.6392458 L45.9138995,52.6392458 C44.2452778,52.6392458 42.8603426,52.6893037 41.7590522,52.789421 L37.9546137,53.1398298 C37.9212413,53.1398298 37.8544974,53.1565158 37.7543801,53.1898882 L37.5040881,53.1898882 C36.4695426,53.1898882 35.6269013,52.8394829 34.9761388,52.1386618 C34.3253764,51.4378406 34,50.5534844 34,49.4855665 C34,48.5511383 34.2586325,47.7668979 34.7759052,47.1328216 C35.293178,46.4987454 35.9522737,46.181712 36.7532121,46.181712 C37.0201916,46.181712 37.4206548,46.2401129 37.9546137,46.3569164 C38.4885727,46.4737199 38.8723499,46.5321208 39.1059569,46.5321208 C40.0070127,46.5321208 40.4575338,45.3974751 40.4575338,43.1281495 L40.4575338,29.2619723 C40.4575338,27.0260192 40.0070127,25.9080594 39.1059569,25.9080594 C38.9057223,25.9080594 38.5052591,25.9748033 37.9045553,26.108293 C37.4707137,26.2084103 37.0869364,26.2584682 36.7532121,26.2584682 C35.9856461,26.2584682 35.3348934,25.9414348 34.8009344,25.3073586 C34.2669755,24.6732823 34,23.8890419 34,22.9546137 C34,20.518426 35.2180756,19.3003504 37.6542633,19.3003504 C38.2215947,19.3003504 39.3729264,19.3670943 41.108293,19.500584 C43.7113429,19.7008186 46.2309239,19.8009344 48.6671116,19.8009344 C48.9007187,19.8009344 50.9030347,19.7508765 54.6741198,19.6507592 C57.4106594,19.5840144 59.2127439,19.5172705 60.0804272,19.4505256 C61.5154418,19.3504083 63.0171789,19.3003504 64.5856833,19.3003504 C66.4545396,19.3003504 67.3889538,20.1179628 67.3889538,21.7532121 C67.3889538,22.287171 67.3305529,23.0714115 67.2137494,24.1059569 C67.0969459,25.1405024 67.038545,25.9247429 67.038545,26.4587018 C67.038545,26.9926608 67.1136318,27.7518723 67.2638078,28.7363591 C67.4139837,29.7208459 67.4890706,30.4633714 67.4890706,30.963958 C67.4890706,31.9317586 67.1303223,32.7493709 66.412815,33.4168196 C65.6953076,34.0842683 64.8026084,34.4179877 63.7346905,34.4179877 C61.2317579,34.4179877 59.9803104,33.1331682 59.9803104,30.5634907 C59.9803104,30.1296491 60.0553972,29.5289543 60.2055732,28.7613883 C60.3557491,27.9938223 60.430836,27.4264994 60.430836,27.0594026 C60.430836,26.3252091 60.0470587,25.874688 59.2794927,25.7078258 C59.0125133,25.6410809 58.3117027,25.607709 57.1770399,25.607709 L52.2212581,25.607709 Z M85.2097447,27.9103955 L89.7150008,44.0292007 L94.470549,27.9103955 C94.6374111,27.3430641 94.720841,26.9426009 94.720841,26.7089938 C94.720841,26.1416624 94.4538655,25.874687 93.9199066,25.9080594 L93.2190889,25.9581178 L93.1189721,25.9581178 C91.5838401,25.9581178 90.8162857,24.9569598 90.8162857,22.9546137 C90.8162857,20.518426 91.8841876,19.3003504 94.0200234,19.3003504 C94.7208445,19.3003504 95.7553744,19.3837802 97.1236443,19.5506424 C98.4919141,19.7175046 99.526444,19.8009344 100.227265,19.8009344 C101.295183,19.8009344 102.262969,19.7341906 103.130652,19.6007008 C104.432177,19.4004662 105.383277,19.3003504 105.983981,19.3003504 C107.018527,19.3003504 107.852825,19.6257268 108.486901,20.2764892 C109.120978,20.9272517 109.438011,21.769893 109.438011,22.8044385 C109.438011,23.7722391 109.196064,24.5898515 108.712164,25.2573002 C108.228264,25.9247489 107.635912,26.2584682 106.935091,26.2584682 C106.701484,26.2584682 106.367765,26.2000673 105.933923,26.0832638 C105.500081,25.9664603 105.21642,25.9080594 105.08293,25.9080594 C104.281992,25.9080594 103.414321,27.3430526 102.479893,30.2130819 L96.3727682,48.7847489 C95.4717125,51.5212885 94.1535211,52.8895378 92.4181545,52.8895378 C92.0844302,52.8895378 91.5838512,52.8645088 90.9164025,52.8144502 C90.2489538,52.7643915 89.7483748,52.7393626 89.4146504,52.7393626 C89.0809261,52.7393626 88.597033,52.7643915 87.9629568,52.8144502 C87.3288805,52.8645088 86.8449875,52.8895378 86.5112631,52.8895378 C84.7425241,52.8895378 83.2407871,50.9539656 82.006007,47.0827632 L76.0490572,28.3609211 C75.5150983,26.7256718 74.9144035,25.9080594 74.2469548,25.9080594 C74.0133477,25.9080594 73.7046574,25.9664603 73.3208744,26.0832638 C72.9370914,26.2000673 72.5616571,26.2584682 72.1945603,26.2584682 C71.4603668,26.2584682 70.8680149,25.9497778 70.4174871,25.3323878 C69.9669592,24.7149977 69.7416986,23.9224143 69.7416986,22.9546137 C69.7416986,20.518426 70.9597742,19.3003504 73.395962,19.3003504 C74.0634106,19.3003504 75.0812546,19.3837802 76.4495244,19.5506424 C77.8177943,19.7175046 78.8523242,19.8009344 79.5531453,19.8009344 C80.5543184,19.8009344 81.6889641,19.7175046 82.9571166,19.5506424 C84.2252691,19.3837802 85.1096254,19.3003504 85.6102119,19.3003504 C87.8127926,19.3003504 88.9140664,20.535112 88.9140664,23.0046721 C88.9140664,24.9736458 88.2299418,25.9581178 86.861672,25.9581178 L86.3610879,25.9581178 C86.2609706,25.9247454 86.1107969,25.9080594 85.9105623,25.9080594 C85.3098585,25.9080594 85.0095111,26.1917208 85.0095111,26.7590522 C85.0095111,27.0594041 85.076255,27.4431814 85.2097447,27.9103955 Z M127.859503,25.607709 C126.758212,25.607709 126.02403,25.7078248 125.656933,25.9080594 C125.156347,26.2084113 124.906057,26.87585 124.906057,27.9103955 L124.906057,30.7136659 C124.906057,31.2809973 124.981144,31.7064895 125.13132,31.9901552 C125.281496,32.2738209 125.673616,32.4156516 126.307692,32.4156516 C127.776079,32.4156516 128.510262,31.8817007 128.510262,30.8137827 L128.510262,30.1630235 C128.47689,29.9627889 128.460204,29.7124994 128.460204,29.4121475 C128.460204,28.0105053 129.277816,27.3096946 130.913065,27.3096946 C132.615059,27.3096946 133.466044,28.160679 133.466044,29.8626731 C133.466044,30.3298872 133.432672,30.8471522 133.365927,31.4144836 C133.232437,32.5157739 133.165693,33.5336179 133.165693,34.4680461 C133.165693,35.3357294 133.232437,36.4370032 133.365927,37.7719006 C133.499417,39.1067979 133.566161,40.0412121 133.566161,40.575171 C133.566161,42.5441447 132.681804,43.5286167 130.913065,43.5286167 C129.244444,43.5286167 128.410145,42.6776324 128.410145,40.9756382 L128.410145,40.7253462 C128.410145,40.5584841 128.443517,40.1580209 128.510262,39.5239446 C128.510262,38.7230062 127.792765,38.322543 126.357751,38.322543 C125.38995,38.322543 124.906057,38.8564939 124.906057,39.9244118 L124.906057,43.6787919 C124.906057,44.8468271 125.114632,45.6394106 125.531787,46.056566 C125.948943,46.4737214 126.72484,46.682296 127.859503,46.682296 L130.76289,46.682296 C132.898726,46.682296 134.39212,46.4987504 135.243117,46.1316536 C136.094114,45.7645568 136.519606,45.1138041 136.519606,44.1793759 C136.519606,43.7121619 136.469548,43.153182 136.369431,42.5024195 C136.269314,41.851657 136.219256,41.3093631 136.219256,40.8755214 C136.219256,39.6407414 136.569661,38.6729553 137.270482,37.9721342 C137.971303,37.271313 138.922403,36.9209077 140.123811,36.9209077 C142.559999,36.9209077 143.778074,38.2557851 143.778074,40.9255798 C143.778074,41.7932631 143.728017,42.7109913 143.627899,43.6787919 C143.461037,45.2806688 143.377607,46.2818268 143.377607,46.682296 C143.377607,47.0493928 143.461037,47.7668894 143.627899,48.8348073 C143.728017,49.4688835 143.778074,50.1196362 143.778074,50.7870849 C143.778074,52.3555894 142.793602,53.1398298 140.824629,53.1398298 C140.190552,53.1398298 139.139337,53.0897719 137.670949,52.9896546 C135.234762,52.8227924 131.346931,52.7059907 126.007342,52.6392458 L121.552144,52.6392458 C119.883522,52.6392458 118.498587,52.6893037 117.397297,52.789421 L113.592858,53.1398298 C113.559486,53.1398298 113.492742,53.1565158 113.392625,53.1898882 L113.142333,53.1898882 C112.107787,53.1898882 111.265146,52.8394829 110.614383,52.1386618 C109.963621,51.4378406 109.638245,50.5534844 109.638245,49.4855665 C109.638245,48.5511383 109.896877,47.7668979 110.41415,47.1328216 C110.931423,46.4987454 111.590518,46.181712 112.391457,46.181712 C112.658436,46.181712 113.058899,46.2401129 113.592858,46.3569164 C114.126817,46.4737199 114.510595,46.5321208 114.744202,46.5321208 C115.645257,46.5321208 116.095778,45.3974751 116.095778,43.1281495 L116.095778,29.2619723 C116.095778,27.0260192 115.645257,25.9080594 114.744202,25.9080594 C114.543967,25.9080594 114.143504,25.9748033 113.5428,26.108293 C113.108958,26.2084103 112.725181,26.2584682 112.391457,26.2584682 C111.623891,26.2584682 110.973138,25.9414348 110.439179,25.3073586 C109.90522,24.6732823 109.638245,23.8890419 109.638245,22.9546137 C109.638245,20.518426 110.85632,19.3003504 113.292508,19.3003504 C113.859839,19.3003504 115.011171,19.3670943 116.746538,19.500584 C119.349588,19.7008186 121.869169,19.8009344 124.305356,19.8009344 C124.538963,19.8009344 126.541279,19.7508765 130.312364,19.6507592 C133.048904,19.5840144 134.850988,19.5172705 135.718672,19.4505256 C137.153686,19.3504083 138.655423,19.3003504 140.223928,19.3003504 C142.092784,19.3003504 143.027198,20.1179628 143.027198,21.7532121 C143.027198,22.287171 142.968798,23.0714115 142.851994,24.1059569 C142.73519,25.1405024 142.67679,25.9247429 142.67679,26.4587018 C142.67679,26.9926608 142.751876,27.7518723 142.902052,28.7363591 C143.052228,29.7208459 143.127315,30.4633714 143.127315,30.963958 C143.127315,31.9317586 142.768567,32.7493709 142.05106,33.4168196 C141.333552,34.0842683 140.440853,34.4179877 139.372935,34.4179877 C136.870003,34.4179877 135.618555,33.1331682 135.618555,30.5634907 C135.618555,30.1296491 135.693642,29.5289543 135.843818,28.7613883 C135.993994,27.9938223 136.069081,27.4264994 136.069081,27.0594026 C136.069081,26.3252091 135.685303,25.874688 134.917737,25.7078258 C134.650758,25.6410809 133.949947,25.607709 132.815284,25.607709 L127.859503,25.607709 Z M177.317203,33.6671116 C176.349403,34.3345603 174.83098,34.9018832 172.761889,35.3690973 C175.164704,35.7695665 176.866673,36.4787201 177.867846,37.4965793 C178.869019,38.5144386 179.369598,40.0245186 179.369598,42.0268647 C179.369598,42.6275685 179.352912,43.2115773 179.319539,43.7789087 L179.319539,44.3796095 C179.319539,45.7478794 179.720003,46.432004 180.520941,46.432004 C180.721176,46.432004 181.029866,46.3902891 181.447022,46.306858 C181.864177,46.2234269 182.172867,46.181712 182.373102,46.181712 C183.107296,46.181712 183.699647,46.4904024 184.150175,47.1077924 C184.600703,47.7251825 184.825964,48.5344519 184.825964,49.5356249 C184.825964,50.6369152 184.500587,51.5129285 183.849825,52.163691 C183.199062,52.8144534 182.339735,53.1398298 181.271817,53.1398298 C180.90472,53.1398298 180.337397,53.0981149 179.569831,53.0146838 C178.802265,52.9312527 178.234943,52.8895378 177.867846,52.8895378 C177.467377,52.8895378 176.875025,52.9312527 176.090773,53.0146838 C175.30652,53.0981149 174.714169,53.1398298 174.313699,53.1398298 C173.078919,53.1398298 172.086104,52.6309078 171.335224,51.6130486 C170.584345,50.5951893 170.20891,49.251969 170.20891,47.5833472 C170.20891,47.4164851 170.225596,47.2996833 170.258969,47.2329384 L170.359086,44.3295511 L170.359086,43.9791423 C170.359086,42.2437757 169.916907,41.0423861 169.032538,40.3749374 C168.148168,39.7074887 166.554659,39.3737694 164.251961,39.3737694 C163.317532,39.3737694 162.733524,39.6240589 162.499917,40.1246454 C162.333054,40.4583698 162.249625,41.0757505 162.249625,41.9768063 L162.249625,43.1281495 C162.249625,45.3974751 162.666774,46.5321208 163.501085,46.5321208 C163.734692,46.5321208 164.09344,46.4737199 164.57734,46.3569164 C165.061241,46.2401129 165.436675,46.181712 165.703654,46.181712 C166.404475,46.181712 166.996827,46.4987454 167.480728,47.1328216 C167.964628,47.7668979 168.206574,48.5511383 168.206574,49.4855665 C168.206574,51.9217542 167.038557,53.1398298 164.702486,53.1398298 C163.901548,53.1398298 162.81696,53.0564 161.44869,52.8895378 C160.08042,52.7226756 158.895717,52.6392458 157.894544,52.6392458 C156.826626,52.6392458 155.591864,52.7226756 154.190222,52.8895378 C152.78858,53.0564 151.603876,53.1398298 150.636075,53.1398298 C148.199888,53.1398298 146.981812,51.9217542 146.981812,49.4855665 C146.981812,48.5511383 147.240445,47.7668979 147.757717,47.1328216 C148.27499,46.4987454 148.9174,46.181712 149.684966,46.181712 C149.985318,46.181712 150.402467,46.2401129 150.936426,46.3569164 C151.470385,46.4737199 151.854162,46.5321208 152.087769,46.5321208 C152.988825,46.5321208 153.439346,45.3974751 153.439346,43.1281495 L153.439346,29.2619723 C153.439346,28.1940544 153.405974,27.5099298 153.339229,27.2095778 C153.172367,26.3418945 152.755218,25.9080594 152.087769,25.9080594 C151.82079,25.9080594 151.428669,25.9664603 150.911397,26.0832638 C150.394124,26.2000673 149.985318,26.2584682 149.684966,26.2584682 C148.9174,26.2584682 148.27499,25.9414348 147.757717,25.3073586 C147.240445,24.6732823 146.981812,23.8890419 146.981812,22.9546137 C146.981812,21.8866958 147.307188,21.0023396 147.957951,20.3015184 C148.608713,19.6006973 149.451355,19.250292 150.4859,19.250292 C150.686135,19.250292 150.836309,19.266978 150.936426,19.3003504 L154.490572,19.6507592 C155.491745,19.7508765 156.559647,19.8009344 157.69431,19.8009344 C159.663284,19.8009344 162.149493,19.7008186 165.153012,19.500584 C167.155358,19.3670943 168.640409,19.3003504 169.60821,19.3003504 C172.778591,19.3003504 175.289829,20.0929338 177.141999,21.6781245 C178.994169,23.2633151 179.92024,25.4241478 179.92024,28.1606875 C179.92024,30.6636201 179.05257,32.4990764 177.317203,33.6671116 Z M165.953946,25.9581178 C164.619049,25.9581178 163.751379,26.0415476 163.350909,26.2084098 C162.616716,26.5421342 162.249625,27.2596307 162.249625,28.3609211 L162.249625,31.3644252 C162.249625,32.1319912 162.374769,32.6325702 162.625063,32.8661772 C162.875356,33.0997842 163.350906,33.216586 164.051727,33.216586 C168.390144,33.216586 170.559319,31.9317666 170.559319,29.3620891 C170.559319,27.0927636 169.02421,25.9581178 165.953946,25.9581178 Z M199.693309,28.3609211 L202.396463,33.7672284 L205.399967,28.3609211 C205.967298,27.3263756 206.250959,26.6589369 206.250959,26.358585 C206.250959,25.9914882 205.91724,25.624397 205.249791,25.2573002 C204.382108,24.7900861 203.948273,23.9891597 203.948273,22.8544969 C203.948273,20.4850541 205.149663,19.3003504 207.552478,19.3003504 C208.320044,19.3003504 209.054226,19.3504083 209.755048,19.4505256 C211.390297,19.6841327 212.491571,19.8009344 213.058902,19.8009344 C213.659606,19.8009344 214.535619,19.7175046 215.686968,19.5506424 C216.838317,19.3837802 217.697644,19.3003504 218.264976,19.3003504 C219.332894,19.3003504 220.192221,19.6340697 220.842983,20.3015184 C221.493746,20.9689671 221.819122,21.8700093 221.819122,23.0046721 C221.819122,23.9391003 221.577176,24.7149977 221.093275,25.3323878 C220.609375,25.9497778 220.000337,26.2584682 219.266144,26.2584682 C218.965792,26.2584682 218.515271,26.1917243 217.914567,26.0582346 C217.480725,25.9581173 217.147006,25.9080594 216.913399,25.9080594 C216.446185,25.9080594 216.09578,26.0248612 215.862173,26.2584682 C215.628565,26.4920753 215.144672,27.1928859 214.410479,28.3609211 L207.80277,38.9232438 C207.068576,40.1246514 206.668113,41.4261568 206.601368,42.8277991 L206.55131,44.2294343 C206.484565,45.7645663 207.018516,46.5321208 208.153179,46.5321208 C208.520275,46.5321208 209.03754,46.4737199 209.704989,46.3569164 C210.372438,46.2401129 210.873017,46.181712 211.206741,46.181712 C212.00768,46.181712 212.666775,46.4987454 213.184048,47.1328216 C213.701321,47.7668979 213.959953,48.5845103 213.959953,49.5856833 C213.959953,50.6869736 213.626234,51.5546439 212.958785,52.1887202 C212.291337,52.8227964 211.390294,53.1398298 210.255632,53.1398298 C209.421321,53.1398298 208.153187,53.0564 206.451193,52.8895378 C204.749199,52.7226756 203.464379,52.6392458 202.596696,52.6392458 C201.662268,52.6392458 200.277333,52.7226756 198.441849,52.8895378 C196.606365,53.0564 195.22143,53.1398298 194.287002,53.1398298 C193.185711,53.1398298 192.301355,52.8061105 191.633906,52.1386618 C190.966458,51.4712131 190.632738,50.6035428 190.632738,49.5356249 C190.632738,47.2996718 191.583838,46.181712 193.486067,46.181712 C193.819791,46.181712 194.328713,46.2401129 195.012848,46.3569164 C195.696983,46.4737199 196.205905,46.5321208 196.53963,46.5321208 C197.50743,46.5321208 197.991323,45.7645663 197.991323,44.2294343 L197.991323,42.8277991 C197.991323,41.7932536 197.557488,40.575178 196.689805,39.1735358 L189.281161,27.0093442 C188.84732,26.2751507 188.279997,25.9080594 187.579176,25.9080594 C187.378941,25.9080594 187.061908,25.9581173 186.628066,26.0582346 C186.060735,26.1917243 185.610214,26.2584682 185.276489,26.2584682 C183.674612,26.2584682 182.873686,25.2406242 182.873686,23.2049057 C182.873686,20.6018558 184.041704,19.3003504 186.377774,19.3003504 C186.978478,19.3003504 187.929578,19.3837802 189.231103,19.5506424 C190.532628,19.7175046 191.533786,19.8009344 192.234607,19.8009344 C193.169035,19.8009344 194.337053,19.7008186 195.738695,19.500584 C196.673123,19.3670943 197.423992,19.3003504 197.991323,19.3003504 C200.260649,19.3003504 201.395295,20.5517979 201.395295,23.0547305 C201.395295,24.089276 201.011517,24.8067726 200.243951,25.2072418 C199.776737,25.4742213 199.443018,25.6577669 199.242783,25.7578842 C199.042549,25.8580015 198.942433,26.0248612 198.942433,26.2584682 L198.942433,26.4086434 C198.942433,26.7089953 199.009177,26.9759708 199.142666,27.2095778 C199.176039,27.3430676 199.359585,27.7268448 199.693309,28.3609211 Z M227.025196,46.5321208 C227.926252,46.5321208 228.376773,45.3974751 228.376773,43.1281495 L228.376773,29.2619723 C228.376773,27.0260192 227.926252,25.9080594 227.025196,25.9080594 C226.758217,25.9080594 226.366096,25.9664603 225.848824,26.0832638 C225.331551,26.2000673 224.922745,26.2584682 224.622393,26.2584682 C223.854827,26.2584682 223.212417,25.9414348 222.695144,25.3073586 C222.177872,24.6732823 221.919239,23.8890419 221.919239,22.9546137 C221.919239,21.8533234 222.252958,20.9689671 222.920407,20.3015184 C223.587856,19.6340697 224.455526,19.3003504 225.523444,19.3003504 C226.090775,19.3003504 227.258793,19.4004662 229.027532,19.6007008 C230.195567,19.7341906 231.313527,19.8009344 232.381445,19.8009344 C232.781914,19.8009344 233.716328,19.7508765 235.184716,19.6507592 L238.838979,19.4004672 C239.806779,19.3337223 240.75788,19.3003504 241.692308,19.3003504 C247.732718,19.3003504 252.054384,21.8533034 254.657434,26.9592858 C256.125821,29.8293152 256.860003,32.9162191 256.860003,36.2200901 C256.860003,39.5239611 256.159193,42.5608071 254.75755,45.3307192 C253.355908,48.1006312 251.48708,50.1363192 249.15101,51.4378442 C247.081919,52.5725069 244.612395,53.1398298 241.742366,53.1398298 C240.607703,53.1398298 239.639917,53.1064579 238.838979,53.039713 L235.184716,52.7393626 C234.383777,52.6726177 233.449363,52.6392458 232.381445,52.6392458 C231.046548,52.6392458 229.928588,52.6893037 229.027532,52.789421 L227.025196,52.9896546 C226.25763,53.0897719 225.757051,53.1398298 225.523444,53.1398298 C224.455526,53.1398298 223.587856,52.8061105 222.920407,52.1386618 C222.252958,51.4712131 221.919239,50.5868568 221.919239,49.4855665 C221.919239,48.5511383 222.177872,47.7668979 222.695144,47.1328216 C223.212417,46.4987454 223.854827,46.181712 224.622393,46.181712 C224.922745,46.181712 225.339894,46.2401129 225.873853,46.3569164 C226.407812,46.4737199 226.791589,46.5321208 227.025196,46.5321208 Z M240.04038,25.7078258 C238.905718,25.7078258 238.146506,25.8830284 237.762723,26.233439 C237.37894,26.5838496 237.187052,27.2763172 237.187052,28.3108627 L237.187052,44.0792591 C237.187052,45.1138046 237.37894,45.8146152 237.762723,46.181712 C238.146506,46.5488088 238.905718,46.7323544 240.04038,46.7323544 C241.875864,46.7323544 243.527775,45.9814859 244.996162,44.4797263 C246.698156,42.7109873 247.549141,40.0912905 247.549141,36.6205573 C247.549141,32.7159825 246.698156,29.8293102 244.996162,27.9604539 C244.228596,27.126143 243.394298,26.5254482 242.493242,26.1583514 C241.725676,25.8579995 240.908064,25.7078258 240.04038,25.7078258 Z M281.38862,42.5274487 L274.730853,42.5274487 C272.828624,42.5274487 271.877524,43.6620944 271.877524,45.93142 C271.877524,46.4653789 272.161185,46.7323544 272.728517,46.7323544 C272.895379,46.7323544 273.145668,46.7073255 273.479393,46.6572668 C273.813117,46.6072082 274.063406,46.5821792 274.230269,46.5821792 C275.465049,46.5821792 276.08243,47.5666513 276.08243,49.5356249 C276.08243,50.6035428 275.798768,51.4712131 275.231437,52.1386618 C274.664105,52.8061105 273.913237,53.1398298 272.978809,53.1398298 C272.511595,53.1398298 271.477065,53.023028 269.875188,52.789421 C269.174367,52.6893037 268.189895,52.6392458 266.921742,52.6392458 C265.553472,52.6392458 264.48557,52.6893037 263.718004,52.789421 C261.949265,53.023028 260.898049,53.1398298 260.564325,53.1398298 C259.52978,53.1398298 258.687138,52.8227964 258.036376,52.1887202 C257.385613,51.5546439 257.060237,50.7203456 257.060237,49.6858001 C257.060237,47.3497297 257.944593,46.181712 259.713332,46.181712 C259.913567,46.181712 260.2306,46.2067409 260.664442,46.2567996 C261.098283,46.3068583 261.415317,46.3318872 261.615551,46.3318872 C262.249628,46.3318872 262.766893,45.9814819 263.167362,45.2806608 C263.267479,45.0804262 263.501083,44.4630454 263.86818,43.4284999 L270.776239,23.7555481 C271.577177,21.519595 272.47822,20.1179738 273.479393,19.5506424 C274.213586,19.1835456 275.832125,19 278.335058,19 C281.138342,19 282.907055,19.1752027 283.641248,19.5256132 C284.375442,19.8760238 284.976136,20.8521528 285.443351,22.4540297 L291.850826,43.7789087 C292.351412,45.4809029 292.935421,46.3318872 293.60287,46.3318872 C293.803105,46.3318872 294.15351,46.2818293 294.654096,46.181712 L295.204739,46.181712 C297.073595,46.181712 298.008009,47.2829858 298.008009,49.4855665 C298.008009,50.5868568 297.67429,51.4712131 297.006841,52.1386618 C296.339393,52.8061105 295.471722,53.1398298 294.403804,53.1398298 C293.93659,53.1398298 293.31921,53.0897719 292.551644,52.9896546 C291.617215,52.8227924 290.999835,52.7393626 290.699483,52.7393626 C289.965289,52.6726177 289.014189,52.6392458 287.846154,52.6392458 C286.578001,52.6392458 285.727017,52.6726177 285.293175,52.7393626 C283.591181,53.0063421 282.523279,53.1398298 282.089438,53.1398298 C281.188382,53.1398298 280.445856,52.7977675 279.861839,52.1136326 C279.277821,51.4294977 278.985817,50.5701704 278.985817,49.5356249 C278.985817,47.5666513 279.619884,46.5821792 280.888036,46.5821792 C281.054898,46.5821792 281.305188,46.6072082 281.638912,46.6572668 C281.972636,46.7073255 282.222926,46.7323544 282.389788,46.7323544 C283.023864,46.7323544 283.340898,46.3819491 283.340898,45.681128 C283.340898,44.7800723 283.157352,44.0292037 282.790255,43.4284999 C282.423159,42.8277961 281.955951,42.5274487 281.38862,42.5274487 Z M280.637744,34.8685133 L278.234941,24.606541 L275.13132,35.2689805 C275.097947,35.3690978 275.081261,35.4858995 275.081261,35.6193893 C275.081261,36.0198585 275.498411,36.2200901 276.332722,36.2200901 L279.436342,36.2200901 C280.304026,36.2200901 280.737861,35.9864866 280.737861,35.5192725 C280.737861,35.5526449 280.704489,35.3357273 280.637744,34.8685133 Z M311.874187,28.3609211 L314.57734,33.7672284 L317.580844,28.3609211 C318.148176,27.3263756 318.431837,26.6589369 318.431837,26.358585 C318.431837,25.9914882 318.098118,25.624397 317.430669,25.2573002 C316.562986,24.7900861 316.129151,23.9891597 316.129151,22.8544969 C316.129151,20.4850541 317.33054,19.3003504 319.733356,19.3003504 C320.500922,19.3003504 321.235104,19.3504083 321.935925,19.4505256 C323.571175,19.6841327 324.672448,19.8009344 325.23978,19.8009344 C325.840484,19.8009344 326.716497,19.7175046 327.867846,19.5506424 C329.019195,19.3837802 329.878522,19.3003504 330.445853,19.3003504 C331.513771,19.3003504 332.373099,19.6340697 333.023861,20.3015184 C333.674624,20.9689671 334,21.8700093 334,23.0046721 C334,23.9391003 333.758053,24.7149977 333.274153,25.3323878 C332.790253,25.9497778 332.181215,26.2584682 331.447022,26.2584682 C331.14667,26.2584682 330.696149,26.1917243 330.095445,26.0582346 C329.661603,25.9581173 329.327884,25.9080594 329.094277,25.9080594 C328.627063,25.9080594 328.276657,26.0248612 328.04305,26.2584682 C327.809443,26.4920753 327.32555,27.1928859 326.591357,28.3609211 L319.983648,38.9232438 C319.249454,40.1246514 318.848991,41.4261568 318.782246,42.8277991 L318.732188,44.2294343 C318.665443,45.7645663 319.199394,46.5321208 320.334056,46.5321208 C320.701153,46.5321208 321.218418,46.4737199 321.885867,46.3569164 C322.553316,46.2401129 323.053895,46.181712 323.387619,46.181712 C324.188557,46.181712 324.847653,46.4987454 325.364926,47.1328216 C325.882198,47.7668979 326.140831,48.5845103 326.140831,49.5856833 C326.140831,50.6869736 325.807112,51.5546439 325.139663,52.1887202 C324.472214,52.8227964 323.571172,53.1398298 322.436509,53.1398298 C321.602198,53.1398298 320.334065,53.0564 318.632071,52.8895378 C316.930077,52.7226756 315.645257,52.6392458 314.777574,52.6392458 C313.843146,52.6392458 312.45821,52.7226756 310.622727,52.8895378 C308.787243,53.0564 307.402307,53.1398298 306.467879,53.1398298 C305.366589,53.1398298 304.482233,52.8061105 303.814784,52.1386618 C303.147335,51.4712131 302.813616,50.6035428 302.813616,49.5356249 C302.813616,47.2996718 303.764716,46.181712 305.666945,46.181712 C306.000669,46.181712 306.509591,46.2401129 307.193726,46.3569164 C307.877861,46.4737199 308.386783,46.5321208 308.720507,46.5321208 C309.688308,46.5321208 310.172201,45.7645663 310.172201,44.2294343 L310.172201,42.8277991 C310.172201,41.7932536 309.738366,40.575178 308.870682,39.1735358 L301.462039,27.0093442 C301.028197,26.2751507 300.460875,25.9080594 299.760053,25.9080594 C299.559819,25.9080594 299.242785,25.9581173 298.808944,26.0582346 C298.241612,26.1917243 297.791091,26.2584682 297.457367,26.2584682 C295.85549,26.2584682 295.054564,25.2406242 295.054564,23.2049057 C295.054564,20.6018558 296.222581,19.3003504 298.558652,19.3003504 C299.159356,19.3003504 300.110456,19.3837802 301.411981,19.5506424 C302.713506,19.7175046 303.714664,19.8009344 304.415485,19.8009344 C305.349913,19.8009344 306.517931,19.7008186 307.919573,19.500584 C308.854001,19.3670943 309.60487,19.3003504 310.172201,19.3003504 C312.441526,19.3003504 313.576172,20.5517979 313.576172,23.0547305 C313.576172,24.089276 313.192395,24.8067726 312.424829,25.2072418 C311.957615,25.4742213 311.623896,25.6577669 311.423661,25.7578842 C311.223426,25.8580015 311.123311,26.0248612 311.123311,26.2584682 L311.123311,26.4086434 C311.123311,26.7089953 311.190054,26.9759708 311.323544,27.2095778 C311.356917,27.3430676 311.540462,27.7268448 311.874187,28.3609211 Z M44.3620891,85.640247 C45.4967519,85.640247 46.0640748,84.605717 46.0640748,82.5366261 L46.0640748,68.1198064 C46.0640748,65.8838533 45.2464624,64.7658935 43.6112131,64.7658935 C41.9759638,64.7658935 41.1583514,65.3332164 41.1583514,66.4678792 C41.1583514,66.8016035 41.2167523,67.3105255 41.3335558,67.9946604 C41.4503593,68.6787953 41.5087602,69.1877173 41.5087602,69.5214417 C41.5087602,72.4915884 40.2573127,73.9766394 37.7543801,73.9766394 C36.5863449,73.9766394 35.6686167,73.6012052 35.001168,72.8503254 C34.3337193,72.0994456 34,71.0899446 34,69.8217921 C34,69.3879504 34.0667439,68.60371 34.2002336,67.4690472 C34.3003509,66.6013639 34.3504088,65.8004375 34.3504088,65.066244 C34.3504088,64.6657747 34.3003509,63.8481624 34.2002336,62.6133823 C34.1334887,61.7790714 34.1001168,61.1116327 34.1001168,60.6110462 C34.1001168,59.1426591 34.8342993,58.4084766 36.3026865,58.4084766 C37.0702525,58.4084766 38.0380385,58.4585345 39.2060738,58.5586518 C41.8758685,58.7922588 45.6135251,58.9090606 50.4191557,58.9090606 C55.2581587,58.9090606 59.0125013,58.7922588 61.682296,58.5586518 C62.8503312,58.4585345 63.8014313,58.4084766 64.5356249,58.4084766 C66.0373844,58.4084766 66.788253,59.1426591 66.788253,60.6110462 C66.788253,61.1116327 66.746538,61.8541583 66.663107,62.8386451 C66.5796759,63.8231319 66.537961,64.5656574 66.537961,65.066244 C66.537961,65.6002029 66.5880189,66.4011293 66.6881362,67.4690472 C66.8216259,68.8706895 66.8883698,69.6716159 66.8883698,69.8718505 C66.8883698,71.140003 66.5463074,72.141161 65.8621725,72.8753546 C65.1780376,73.6095481 64.2686524,73.9766394 63.1339897,73.9766394 C60.6310571,73.9766394 59.3796095,72.5416463 59.3796095,69.6716169 C59.3796095,69.2711477 59.4296674,68.7371967 59.5297847,68.069748 C59.6299021,67.4022993 59.67996,66.9017203 59.67996,66.567996 C59.67996,65.3665884 58.9457774,64.7658935 57.4773903,64.7658935 C56.5095897,64.7658935 55.825465,65.016183 55.4249958,65.5167696 C55.0245266,66.0173561 54.824295,66.8850264 54.824295,68.1198064 L54.824295,82.5366261 C54.824295,84.605717 55.3916179,85.640247 56.5262807,85.640247 C56.8933774,85.640247 57.4356714,85.5818461 58.1531787,85.4650425 C58.8706861,85.348239 59.41298,85.2898381 59.7800768,85.2898381 C61.7824228,85.2898381 62.7835808,86.2909962 62.7835808,88.2933422 C62.7835808,90.9297646 61.5321333,92.2479559 59.0292007,92.2479559 C58.0614001,92.2479559 56.9100684,92.1812121 55.575171,92.0477223 C53.572825,91.8474877 51.8541704,91.7473719 50.4191557,91.7473719 C48.9507686,91.7473719 47.232114,91.8474877 45.2631403,92.0477223 C43.9616154,92.1812121 42.8102837,92.2479559 41.8091106,92.2479559 C39.306178,92.2479559 38.0547305,91.0298804 38.0547305,88.5936926 C38.0547305,86.391112 39.0725745,85.2898381 41.108293,85.2898381 C41.4753898,85.2898381 42.0176837,85.348239 42.7351911,85.4650425 C43.4526984,85.5818461 43.9949923,85.640247 44.3620891,85.640247 Z M83.9082263,66.1174704 L83.9082263,71.3235441 L94.4204906,71.3235441 L94.4204906,67.819456 C94.4204906,66.7849106 94.4038046,66.2175877 94.3704322,66.1174704 C94.2703149,65.4166493 93.9532815,65.066244 93.4193225,65.066244 C93.1857155,65.066244 92.9854839,65.0829299 92.8186217,65.1163024 L92.3680961,65.1163024 C90.899709,65.1163024 90.1655264,64.0984584 90.1655264,62.0627399 C90.1655264,60.9614495 90.4742168,60.0770933 91.0916069,59.4096446 C91.7089969,58.7421959 92.5182663,58.4084766 93.5194393,58.4084766 C94.186888,58.4084766 95.1880461,58.4919064 96.5229434,58.6587686 C97.8578408,58.8256307 98.8589988,58.9090606 99.5264475,58.9090606 C100.394131,58.9090606 101.478719,58.8423167 102.780244,58.708827 C105.049569,58.4752199 106.167529,58.3584182 106.134157,58.3584182 C107.202074,58.3584182 108.061402,58.7004805 108.712164,59.3846154 C109.362927,60.0687503 109.688303,60.9614495 109.688303,62.0627399 C109.688303,62.997168 109.429671,63.7814085 108.912398,64.4154847 C108.395125,65.049561 107.752715,65.3665944 106.985149,65.3665944 C106.684797,65.3665944 106.275991,65.3081935 105.758719,65.19139 C105.241446,65.0745864 104.849326,65.0161855 104.582346,65.0161855 C103.914897,65.0161855 103.481062,65.4333347 103.280828,66.2676456 C103.214083,66.6013699 103.180711,67.3021805 103.180711,68.3700984 L103.180711,82.2362757 C103.180711,84.5056012 103.631232,85.640247 104.532288,85.640247 C104.799267,85.640247 105.19973,85.5818461 105.733689,85.4650425 C106.267648,85.348239 106.668111,85.2898381 106.935091,85.2898381 C107.702657,85.2898381 108.35341,85.6068715 108.887369,86.2409478 C109.421328,86.875024 109.688303,87.6592645 109.688303,88.5936926 C109.688303,89.694983 109.362927,90.5876822 108.712164,91.2718171 C108.061402,91.955952 107.202074,92.2980144 106.134157,92.2980144 L105.933923,92.2980144 C105.867178,92.2646419 105.800434,92.2479559 105.733689,92.2479559 C105.066241,92.2479559 104.065083,92.1645261 102.730185,91.9976639 C101.395288,91.8308018 100.377444,91.7473719 99.6766227,91.7473719 C98.3750978,91.7473719 97.273824,91.8141158 96.3727682,91.9476055 C95.0044984,92.1478401 94.0367123,92.2479559 93.4693809,92.2479559 C92.5015803,92.2479559 91.7089969,91.9058936 91.0916069,91.2217587 C90.4742168,90.5376238 90.1655264,89.6449246 90.1655264,88.5436342 C90.1655264,86.5079157 90.899709,85.4900718 92.3680961,85.4900718 C92.5683307,85.4900718 92.7185044,85.5067577 92.8186217,85.5401302 L93.1690305,85.5401302 C93.3025203,85.5735026 93.3859501,85.5901886 93.4193225,85.5901886 C93.9532815,85.5901886 94.2703149,85.2230973 94.3704322,84.4889037 C94.4038046,84.1218069 94.4204906,83.5544841 94.4204906,82.7869181 L94.4204906,77.8311363 L83.9082263,77.8311363 L83.9082263,84.5389621 C84.0083436,85.2397832 84.3420629,85.5901886 84.9093943,85.5901886 C84.9427667,85.5901886 85.0261966,85.5735026 85.1596863,85.5401302 L85.4600367,85.5401302 C85.560154,85.5067577 85.7103277,85.4900718 85.9105623,85.4900718 C87.3789494,85.4900718 88.113132,86.5079157 88.113132,88.5436342 C88.113132,89.6449246 87.8044416,90.5376238 87.1870516,91.2217587 C86.5696615,91.9058936 85.7770781,92.2479559 84.8092775,92.2479559 C84.2085737,92.2479559 83.2991885,92.1645261 82.0810946,91.9976639 C80.8630008,91.8308018 79.9369296,91.7473719 79.3028533,91.7473719 C77.8678386,91.7473719 76.6163911,91.8141158 75.5484732,91.9476055 C73.9465964,92.1478401 72.8286366,92.2479559 72.1945603,92.2479559 C71.1266424,92.2479559 70.2673151,91.9142366 69.6165526,91.2467879 C68.9657902,90.5793392 68.6404138,89.694983 68.6404138,88.5936926 C68.6404138,87.6592645 68.9073893,86.875024 69.4413482,86.2409478 C69.9753072,85.6068715 70.6260599,85.2898381 71.3936259,85.2898381 C71.6606054,85.2898381 72.0527256,85.348239 72.5699983,85.4650425 C73.0872711,85.5818461 73.4793913,85.640247 73.7463708,85.640247 C74.6474265,85.640247 75.0979476,84.5056012 75.0979476,82.2362757 L75.0979476,68.3700984 C75.0979476,66.1341453 74.6474265,65.0161855 73.7463708,65.0161855 C73.4793913,65.0161855 73.0872711,65.0745864 72.5699983,65.19139 C72.0527256,65.3081935 71.6439194,65.3665944 71.3435675,65.3665944 C70.5760015,65.3665944 69.9335918,65.049561 69.416319,64.4154847 C68.8990463,63.7814085 68.6404138,62.997168 68.6404138,62.0627399 C68.6404138,60.9614495 68.9741332,60.0770933 69.6415818,59.4096446 C70.3090305,58.7421959 71.1767008,58.4084766 72.2446187,58.4084766 C72.5783431,58.4084766 73.646245,58.5085924 75.4483564,58.708827 C76.6497641,58.8423167 77.8511537,58.9090606 79.0525613,58.9090606 C80.0871068,58.9090606 81.0548929,58.8423167 81.9559486,58.708827 C83.290846,58.5085924 84.2419461,58.4084766 84.8092775,58.4084766 C85.8104505,58.4084766 86.6113769,58.7505389 87.2120808,59.4346738 C87.8127846,60.1188087 88.113132,61.0115079 88.113132,62.1127983 C88.113132,64.1151443 87.3789494,65.1163024 85.9105623,65.1163024 L85.4600367,65.1163024 C85.326547,65.0829299 85.1430013,65.066244 84.9093943,65.066244 C84.3420629,65.066244 84.0083436,65.4166493 83.9082263,66.1174704 Z M116.596362,85.640247 C117.263811,85.640247 117.68096,85.2064118 117.847822,84.3387285 C117.914567,84.0050042 117.947939,83.3041936 117.947939,82.2362757 L117.947939,68.3700984 C117.947939,67.3021805 117.914567,66.6180559 117.847822,66.317704 C117.68096,65.4500207 117.263811,65.0161855 116.596362,65.0161855 C116.329383,65.0161855 115.937263,65.0745864 115.41999,65.19139 C114.902717,65.3081935 114.493911,65.3665944 114.193559,65.3665944 C113.425993,65.3665944 112.783583,65.049561 112.266311,64.4154847 C111.749038,63.7814085 111.490405,62.997168 111.490405,62.0627399 C111.490405,60.9280771 111.815782,60.0353779 112.466544,59.3846154 C113.117307,58.7338529 113.99332,58.4084766 115.09461,58.4084766 C115.595197,58.4084766 116.763215,58.5085924 118.598698,58.708827 C119.833479,58.8423167 121.034868,58.9090606 122.202903,58.9090606 C123.137332,58.9090606 124.480552,58.8256307 126.232605,58.6587686 C127.984658,58.4919064 129.144332,58.4084766 129.711664,58.4084766 C132.147851,58.4084766 133.365927,59.6265521 133.365927,62.0627399 C133.365927,62.997168 133.107294,63.7814085 132.590022,64.4154847 C132.072749,65.049561 131.430339,65.3665944 130.662773,65.3665944 C130.395794,65.3665944 129.995331,65.3081935 129.461372,65.19139 C128.927413,65.0745864 128.526949,65.0161855 128.25997,65.0161855 C127.358914,65.0161855 126.908393,66.1341453 126.908393,68.3700984 L126.908393,82.2362757 C126.908393,84.5056012 127.358914,85.640247 128.25997,85.640247 C128.526949,85.640247 128.927413,85.5818461 129.461372,85.4650425 C129.995331,85.348239 130.395794,85.2898381 130.662773,85.2898381 C131.430339,85.2898381 132.072749,85.6068715 132.590022,86.2409478 C133.107294,86.875024 133.365927,87.6592645 133.365927,88.5936926 C133.365927,89.6616105 133.040551,90.5459668 132.389788,91.2467879 C131.739026,91.947609 130.91307,92.2980144 129.911897,92.2980144 C129.711663,92.2980144 129.561489,92.2813284 129.461372,92.2479559 L126.307692,91.8474887 C125.506754,91.7473714 124.622398,91.6973135 123.654597,91.6973135 C122.152837,91.6973135 120.584357,91.7807434 118.949107,91.9476055 C116.980134,92.1478401 115.695314,92.2479559 115.09461,92.2479559 C114.026692,92.2479559 113.159022,91.9142366 112.491574,91.2467879 C111.824125,90.5793392 111.490405,89.694983 111.490405,88.5936926 C111.490405,87.625892 111.749038,86.8333086 112.266311,86.2159186 C112.783583,85.5985285 113.442679,85.2898381 114.243618,85.2898381 C114.510597,85.2898381 114.902717,85.348239 115.41999,85.4650425 C115.937263,85.5818461 116.329383,85.640247 116.596362,85.640247 Z M155.141332,61.7623895 L163.95161,83.1873853 L163.95161,68.3700984 C163.95161,66.1341453 163.517775,65.0161855 162.650092,65.0161855 C162.416485,65.0161855 162.074422,65.0745864 161.623895,65.19139 C161.173367,65.3081935 160.831304,65.3665944 160.597697,65.3665944 C159.896876,65.3665944 159.304524,65.049561 158.820624,64.4154847 C158.336724,63.7814085 158.094777,62.997168 158.094777,62.0627399 C158.094777,60.9614495 158.411811,60.0770933 159.045887,59.4096446 C159.679963,58.7421959 160.514261,58.4084766 161.548807,58.4084766 C162.082766,58.4084766 163.000494,58.4919064 164.302019,58.6587686 C165.603544,58.8256307 166.754876,58.9090606 167.756049,58.9090606 C168.657104,58.9090606 169.70832,58.8423167 170.909728,58.708827 C172.711839,58.5085924 173.829799,58.4084766 174.263641,58.4084766 C175.331559,58.4084766 176.199229,58.7421959 176.866678,59.4096446 C177.534126,60.0770933 177.867846,60.9614495 177.867846,62.0627399 C177.867846,62.997168 177.60087,63.7814085 177.066911,64.4154847 C176.532952,65.049561 175.8822,65.3665944 175.114634,65.3665944 C174.814282,65.3665944 174.413819,65.3081935 173.913232,65.19139 C173.412646,65.0745864 173.028868,65.0161855 172.761889,65.0161855 C172.09444,65.0161855 171.660605,65.4333347 171.46037,66.2676456 C171.393626,66.6013699 171.360254,67.3021805 171.360254,68.3700984 L171.360254,88.7438678 C171.360254,90.9464485 170.459211,92.0477223 168.6571,92.0477223 C168.323376,92.0477223 167.814454,92.0226934 167.130319,91.9726347 C166.446184,91.9225761 165.937262,91.8975471 165.603537,91.8975471 C165.570165,91.8975471 164.752553,91.9309191 163.150676,91.9976639 L162.049391,91.9976639 C161.08159,91.9976639 160.364094,91.7640604 159.89688,91.2968463 C159.6299,91.0298668 159.246123,90.3123703 158.745536,89.1443351 L149.084265,67.1186384 L149.084265,82.2362757 C149.084265,84.5056012 149.5181,85.640247 150.385783,85.640247 C150.61939,85.640247 150.978139,85.5818461 151.462039,85.4650425 C151.945939,85.348239 152.304688,85.2898381 152.538295,85.2898381 C153.239116,85.2898381 153.831468,85.6068715 154.315368,86.2409478 C154.799268,86.875024 155.041215,87.6592645 155.041215,88.5936926 C155.041215,91.0298804 153.873197,92.2479559 151.537127,92.2479559 C150.869678,92.2479559 149.768404,92.1478401 148.233272,91.9476055 C147.198727,91.8141158 146.164197,91.7473719 145.129651,91.7473719 C144.261968,91.7473719 143.09395,91.8308018 141.625563,91.9976639 C140.157176,92.1645261 139.222762,92.2479559 138.822293,92.2479559 C136.386105,92.2479559 135.168029,91.0298804 135.168029,88.5936926 C135.168029,87.6592645 135.426662,86.875024 135.943935,86.2409478 C136.461207,85.6068715 137.103617,85.2898381 137.871183,85.2898381 C138.171535,85.2898381 138.580341,85.348239 139.097614,85.4650425 C139.614887,85.5818461 140.007007,85.640247 140.273986,85.640247 C141.175042,85.640247 141.625563,84.5056012 141.625563,82.2362757 L141.625563,68.3700984 C141.625563,66.1341453 141.175042,65.0161855 140.273986,65.0161855 C140.007007,65.0161855 139.614887,65.0745864 139.097614,65.19139 C138.580341,65.3081935 138.171535,65.3665944 137.871183,65.3665944 C137.103617,65.3665944 136.461207,65.049561 135.943935,64.4154847 C135.426662,63.7814085 135.168029,62.997168 135.168029,62.0627399 C135.168029,60.9614495 135.501749,60.0770933 136.169197,59.4096446 C136.836646,58.7421959 137.704316,58.4084766 138.772234,58.4084766 C139.473055,58.4084766 140.490899,58.4919064 141.825797,58.6587686 C143.160694,58.8256307 144.21191,58.9090606 144.979476,58.9090606 C145.613552,58.9090606 146.69814,58.8423167 148.233272,58.708827 C148.934093,58.6754545 149.73502,58.6087107 150.636075,58.5085934 C151.036545,58.4418485 151.47038,58.4084766 151.937594,58.4084766 C152.83865,58.4084766 153.53946,58.7588819 154.040047,59.459703 C154.240281,59.7266825 154.607373,60.4942369 155.141332,61.7623895 Z M193.185717,57.7076589 C196.689822,57.7076589 199.609867,58.8923626 201.945937,61.2618054 C202.246289,59.2928318 203.247447,58.3083598 204.949441,58.3083598 C207.018532,58.3083598 208.053062,59.3095178 208.053062,61.3118638 C208.053062,61.6455882 207.986318,62.3130269 207.852828,63.3141999 C207.652594,64.8159595 207.552478,65.8338034 207.552478,66.3677624 C207.552478,66.9684662 207.58585,67.4189873 207.652595,67.7193392 C207.71934,68.7872571 207.752711,69.3879519 207.752711,69.5214417 C207.752711,70.389125 207.368934,71.1149645 206.601368,71.6989821 C205.833802,72.2829997 204.84933,72.5750042 203.647923,72.5750042 C201.712321,72.5750042 200.544304,71.6239041 200.143834,69.7216753 C199.743365,67.8194465 199.167699,66.5095981 198.41682,65.7920908 C197.66594,65.0745834 196.472893,64.7158351 194.837644,64.7158351 C192.668436,64.7158351 190.991496,65.7253361 189.806775,67.7443684 C188.622053,69.7634007 188.029701,72.6250441 188.029701,76.3293843 C188.029701,79.4663931 188.605367,81.9108873 189.756716,83.6629401 C190.908065,85.4149929 192.501575,86.2910062 194.537294,86.2910062 C195.838818,86.2910062 196.915063,85.9155719 197.76606,85.1646921 C198.617057,84.4138124 199.04255,83.4710552 199.04255,82.3363925 C199.04255,80.9347502 198.458541,80.2339396 197.290506,80.2339396 L196.990155,80.2339396 C196.856665,80.267312 196.739864,80.283998 196.639746,80.283998 C196.105787,80.3507429 195.80544,80.3841148 195.738695,80.3841148 C195.071246,80.3841148 194.503924,80.0921104 194.036709,79.5080928 C193.569495,78.9240752 193.335892,78.1982356 193.335892,77.3305523 C193.335892,76.3293793 193.669611,75.5284529 194.33706,74.927749 C195.004509,74.3270452 195.872179,74.0266978 196.940097,74.0266978 C197.640918,74.0266978 198.700477,74.1184706 200.118805,74.302019 C201.537134,74.4855674 202.613379,74.5773402 203.347572,74.5773402 C204.448863,74.5773402 205.666938,74.4939104 207.001835,74.3270482 C208.069753,74.1935585 208.803936,74.1268146 209.204405,74.1268146 C210.272323,74.1268146 211.13165,74.452191 211.782413,75.1029534 C212.433175,75.7537159 212.758552,76.6297292 212.758552,77.7310195 C212.758552,78.6988201 212.524948,79.5080895 212.057734,80.158852 C211.59052,80.8096145 211.006511,81.1349908 210.30569,81.1349908 L209.104288,81.034874 C208.203233,81.034874 207.752711,81.7857425 207.752711,83.2875021 C207.752711,83.9215783 207.769397,84.589017 207.80277,85.2898381 L207.902887,87.4423494 C207.936259,88.176543 207.952945,88.8773536 207.952945,89.5448023 C207.952945,91.7807554 206.718184,92.8987152 204.248623,92.8987152 C201.912553,92.8987152 200.744535,92.0811028 200.744535,90.4458535 L200.744535,90.1455031 C198.441837,91.980987 195.82214,92.8987152 192.885366,92.8987152 C190.315689,92.8987152 187.896224,92.2229335 185.626898,90.8713499 C183.357573,89.5197663 181.705662,87.7593968 180.671116,85.5901886 C179.336219,82.8202765 178.66878,79.5998849 178.66878,75.9289171 C178.66878,70.3223481 179.970286,65.8838809 182.573336,62.6133823 C185.176385,59.3428837 188.71381,57.7076589 193.185717,57.7076589 Z M226.624729,57.7076589 C230.095462,57.7076589 232.831961,58.8923626 234.834307,61.2618054 C234.867679,60.0937702 235.09294,59.2928438 235.510095,58.8590022 C235.927251,58.4251605 236.65309,58.208243 237.687636,58.208243 C239.823471,58.208243 240.891373,59.1092852 240.891373,60.9113966 C240.891373,61.4119831 240.841315,62.1461657 240.741198,63.1139663 C240.641081,64.0817669 240.591023,64.8159494 240.591023,65.316536 C240.591023,65.6168879 240.624395,66.050723 240.69114,66.6180544 C240.757885,67.1853858 240.791256,67.6192209 240.791256,67.9195728 L240.791256,68.1698648 C240.791256,70.1388385 239.656611,71.1233105 237.387285,71.1233105 C235.485056,71.1233105 234.350411,70.3223841 233.983314,68.7205073 L233.733022,67.6692808 C233.232435,65.5000726 231.463723,64.4154847 228.426831,64.4154847 C225.556802,64.4154847 224.121809,65.4166427 224.121809,67.4189888 C224.121809,68.4535343 224.430499,69.1543449 225.047889,69.5214417 C225.665279,69.8885385 227.225417,70.3223736 229.72835,70.8229601 C233.933276,71.657271 236.986808,72.9087185 238.889037,74.5773402 C240.791266,76.245962 241.742366,78.5152535 241.742366,81.3852828 C241.742366,84.7558987 240.591034,87.5174262 238.288336,89.6699483 C235.985638,91.8224703 233.048908,92.8987152 229.478058,92.8987152 C226.507911,92.8987152 223.654611,91.8308133 220.918071,89.6949775 C220.817954,91.5638338 219.816796,92.498248 217.914567,92.498248 C215.745359,92.498248 214.660771,91.4303461 214.660771,89.2945103 C214.660771,88.5936891 214.710829,87.8428206 214.810946,87.0418822 C214.944436,85.9739643 215.01118,85.1563519 215.01118,84.5890205 C215.01118,84.2219237 214.969465,83.6546009 214.886034,82.8870349 C214.802603,82.1194689 214.760888,81.552146 214.760888,81.1850492 C214.760888,80.3173659 215.119636,79.6082123 215.837143,79.0575672 C216.554651,78.506922 217.480722,78.2316035 218.615385,78.2316035 C219.883537,78.2316035 220.792922,78.506922 221.343567,79.0575672 C221.894213,79.6082123 222.286333,80.6343993 222.51994,82.1361589 C222.887037,84.6390914 224.789237,85.890539 228.226598,85.890539 C229.62824,85.890539 230.7462,85.5568196 231.580511,84.8893709 C232.414821,84.2219222 232.831971,83.354252 232.831971,82.2863341 C232.831971,81.1182988 232.464879,80.2923435 231.730686,79.8084432 C230.996492,79.3245429 229.244466,78.748877 226.474554,78.0814283 L223.170699,77.2804939 C221.735684,76.9133971 220.400807,76.2626444 219.166027,75.3282163 C216.763212,73.5261048 215.561822,71.1066396 215.561822,68.069748 C215.561822,64.9994841 216.588009,62.504932 218.640414,60.586017 C220.692819,58.667102 223.35423,57.7076589 226.624729,57.7076589 Z" id="EVERYDAY-THINGS"></path>
            </g>
        </g>
    </g>
</svg>