<?xml version="1.0" encoding="UTF-8"?>
<svg width="84px" height="84px" viewBox="0 0 84 84" version="1.1" xmlns="http://www.w3.org/2000/svg" xmlns:xlink="http://www.w3.org/1999/xlink">
    <!-- Generator: Sketch 42 (36781) - http://www.bohemiancoding.com/sketch -->
    <title>Icon-gear</title>
    <desc>Created with Sketch.</desc>
    <defs></defs>
    <g id="Page-1" stroke="none" stroke-width="1" fill="none" fill-rule="evenodd" stroke-linecap="square" stroke-linejoin="round">
        <g id="1200" transform="translate(-939.000000, -448.000000)" stroke="#DA6B1B" stroke-width="3">
            <g id="main" transform="translate(45.000000, 450.000000)">
                <g id="Icon-gear" transform="translate(896.000000, 0.000000)">
                    <path d="M31.6546763,12.828208 L31.6546763,0 L48.3453237,0 L48.3453237,12.6540789 C50.1379555,13.1758966 51.8583124,13.8674162 53.4878434,14.7100866 L62.3832362,5.81469374 L74.1853063,17.6167638 L65.4637517,26.3383184 C66.3946395,28.0147999 67.162933,29.7940194 67.7473316,31.6546763 L80,31.6546763 L80,48.3453237 L67.9214606,48.3453237 C67.3592244,50.2768081 66.5999786,52.1243876 65.6669278,53.8648578 L74.1853063,62.3832362 L62.3832362,74.1853063 L53.8648578,65.6669278 C52.1243876,66.5999786 50.2768081,67.3592244 48.3453237,67.9214606 L48.3453237,80 L31.6546763,80 L31.6546763,67.7473316 C29.7940194,67.162933 28.0147999,66.3946395 26.3383184,65.4637517 L17.6167638,74.1853063 L5.81469374,62.3832362 L14.7100866,53.4878434 C13.8674162,51.8583124 13.1758966,50.1379555 12.6540789,48.3453237 L0,48.3453237 L0,31.6546763 L12.828208,31.6546763 C13.3695332,29.93116 14.0686442,28.2775187 14.9086117,26.7106818 L5.81469374,17.6167638 L17.6167638,5.81469374 L26.7106818,14.9086117 C28.2775187,14.0686442 29.93116,13.3695332 31.6546763,12.828208 Z" id="Combined-Shape"></path>
                    <circle id="Oval-2" cx="40.2877698" cy="40.2877698" r="12.6618705"></circle>
                </g>
            </g>
        </g>
    </g>
</svg>